<?xml version="1.0" standalone="no"?>
<!DOCTYPE svg PUBLIC "-//W3C//DTD SVG 20010904//EN"
 "http://www.w3.org/TR/2001/REC-SVG-20010904/DTD/svg10.dtd">
<svg version="1.0" xmlns="http://www.w3.org/2000/svg"
 width="768.000000pt" height="768.000000pt" viewBox="0 0 768.000000 768.000000"
 preserveAspectRatio="xMidYMid meet">

<g transform="translate(0.000000,768.000000) scale(0.100000,-0.100000)"
fill="#000000" stroke="none">
<path d="M3610 7674 c-758 -55 -1426 -295 -2025 -727 -321 -232 -644 -558
-871 -878 -387 -548 -610 -1132 -691 -1809 -21 -182 -24 -618 -5 -800 81 -751
355 -1425 819 -2011 126 -160 434 -470 587 -592 240 -190 457 -329 721 -459
152 -74 347 -156 463 -194 98 -31 203 -2 250 69 l27 41 0 382 c-1 211 -3 386
-7 389 -3 3 -55 -1 -114 -10 -335 -50 -608 -23 -823 81 -78 38 -108 60 -181
132 -73 73 -94 101 -130 177 -99 209 -128 263 -191 359 -92 138 -158 208 -255
272 -225 149 -217 244 21 244 206 0 416 -141 578 -388 180 -274 360 -394 628
-418 123 -11 342 29 456 84 35 16 38 21 50 86 26 145 94 293 175 381 26 29 48
55 48 58 0 2 -28 8 -62 11 -35 4 -112 16 -173 27 -740 129 -1181 464 -1384
1052 -118 341 -153 816 -85 1144 45 221 160 459 303 631 l53 63 -26 92 c-34
122 -46 208 -46 349 0 144 13 241 50 383 32 121 56 186 74 197 42 27 279 -10
435 -69 165 -62 391 -179 552 -287 l57 -37 123 30 c530 128 1114 131 1653 6
l150 -35 90 59 c265 171 525 287 727 326 82 15 194 20 223 9 19 -7 77 -182
103 -309 13 -67 18 -137 18 -270 0 -183 -6 -231 -47 -372 l-20 -71 49 -59
c243 -292 358 -660 339 -1083 -32 -702 -246 -1155 -687 -1452 -225 -152 -591
-273 -960 -320 l-96 -12 51 -60 c92 -110 160 -269 186 -441 9 -57 13 -263 14
-706 l1 -625 27 -42 c34 -51 74 -73 147 -79 46 -4 74 1 158 31 472 166 934
448 1315 803 1005 937 1432 2318 1132 3663 -250 1120 -1015 2089 -2049 2595
-406 198 -811 317 -1265 370 -129 15 -545 27 -660 19z"/>
</g>
</svg>
